<svg width="48" height="42" viewBox="0 0 48 42" fill="none" xmlns="http://www.w3.org/2000/svg">
<path d="M0.784779 0.298221C0.00276442 0.855725 -0.234633 2.2309 0.254126 3.30875C0.826673 4.53526 -0.765285 4.46092 23.9939 4.46092C48.753 4.46092 47.1611 4.53526 47.7336 3.30875C48.0688 2.58399 48.0827 1.85923 47.8034 1.11589C47.3426 -0.0734492 49.0183 0.000884766 23.9659 0.000884766C4.06645 0.0194683 1.11993 0.0566352 0.784779 0.298221Z" fill="black"/>
<path d="M1.02244 18.9375C0.408 19.2905 0.0449219 20.0525 0.0449219 21.0188C0.0449219 21.7993 0.114745 22.0037 0.505752 22.5241L0.952618 23.1373H18.4083H35.864L36.3109 22.5241C36.7019 22.0037 36.7717 21.7993 36.7717 21.0002C36.7717 20.2011 36.7019 19.9967 36.3109 19.4764L35.864 18.8631L18.5759 18.826C9.07999 18.8074 1.17605 18.8631 1.02244 18.9375Z" fill="black"/>
<path d="M0.994548 37.8183C0.128746 38.32 -0.248297 39.751 0.184604 40.8846C0.63147 42.0553 0.0868531 41.9996 12.8225 41.9996C25.5582 41.9996 25.0136 42.0553 25.4604 40.8846C25.9073 39.7324 25.5163 38.3015 24.6226 37.7997C23.9104 37.4095 1.67881 37.428 0.994548 37.8183Z" fill="black"/>
</svg>
